<svg width="127" height="58" viewBox="0 0 127 58" fill="none" xmlns="http://www.w3.org/2000/svg">
<g clip-path="url(#clip0_5_4)">
<rect width="127" height="58" fill="none"/>
<path d="M6.81559 53V5.53143H22.4124C26.1647 5.53143 29.6005 6.14174 32.7199 7.36236C35.8392 8.53777 38.5065 10.1879 40.7217 12.3127C42.9821 14.3922 44.7226 16.8787 45.9433 19.772C47.2091 22.6653 47.842 25.7847 47.842 29.1301C47.842 32.6111 47.1865 35.8209 45.8754 38.7594C44.6096 41.6528 42.8465 44.1618 40.5861 46.2866C38.3709 48.4114 35.7714 50.0615 32.7877 51.2369C29.8039 52.4123 26.6168 53 23.2262 53H6.81559ZM12.9865 50.0163H20.4459C24.1529 50.0163 27.2949 49.406 29.8718 48.1853C32.4938 46.9195 34.6412 45.292 36.3139 43.3028C37.9866 41.3137 39.2072 39.0985 39.9758 36.6572C40.7443 34.1708 41.1286 31.707 41.1286 29.2657C41.1286 26.5532 40.6765 23.9538 39.7723 21.4673C38.8682 18.9356 37.5345 16.7204 35.7714 14.8217C34.0535 12.8778 31.9061 11.3407 29.3293 10.2105C26.7524 9.08027 23.7913 8.51517 20.4459 8.51517H12.9865V50.0163Z" fill="#FD4242"/>
<path d="M84.369 39.0307H60.9737L55.0063 53H51.8869L71.9593 5.53143H75.3499L97.4567 53H90.8789L84.369 39.0307ZM82.9449 35.9791L72.2984 13.1264H72.0271L62.2622 35.9791H82.9449ZM110.37 5.53143H116.541V53H110.37V5.53143Z" fill="#4638FF"/>
</g>
<defs>
<clipPath id="clip0_5_4">
<rect width="127" height="58" fill="white"/>
</clipPath>
</defs>
</svg>
